<svg xmlns="http://www.w3.org/2000/svg" viewBox="0 0 32 26.89"><defs><style>.cls-1{fill:#fff;}.cls-2{fill:#0934ad;}</style></defs><g id="Layer_2" data-name="Layer 2"><g id="Layer_1-2" data-name="Layer 1"><polygon class="cls-1" points="16 15.32 16 15.32 16 15.32 16 15.32"/><polygon class="cls-2" points="16 15.32 16 15.32 16 15.32 16 15.32"/><polygon class="cls-1" points="16 16.68 16 16.68 16 16.67 16 16.68"/><polygon class="cls-2" points="16 16.68 16 16.68 16 16.67 16 16.68"/><polygon class="cls-1" points="16 15.32 16 15.32 16 15.32 16 15.32"/><path class="cls-2" d="M26.22,16.67,32,10.89,21.11,0,16,5.1h0L10.89,0,0,10.89l5.78,5.78,5.11-5.1L15.32,16l-5.11,5.11L16,26.89h0l5.79-5.78L16.68,16l4.43-4.43Zm-5.79,4.44L16,25.53h0l-4.43-4.42L16,16.67h0ZM16,15.32h0l-5.11-5.11L5.78,15.32,1.35,10.89l9.54-9.54L16,6.46h0l5.11-5.11,9.54,9.54-4.43,4.43-5.11-5.11Z"/><polygon class="cls-1" points="30.65 10.89 26.22 15.32 21.11 10.21 16 15.32 16 15.32 16 15.32 10.89 10.21 5.78 15.32 1.35 10.89 10.89 1.35 16 6.46 16 6.46 16 6.46 21.11 1.35 30.65 10.89"/><polygon class="cls-1" points="20.43 21.11 16 25.54 16 25.53 16 25.54 11.57 21.11 16 16.68 16 16.68 16 16.68 20.43 21.11"/><polygon class="cls-2" points="16 15.32 16 15.32 16 15.32 16 15.32"/><polygon class="cls-1" points="16 16.67 16 16.68 16 16.68 16 16.67"/><polygon class="cls-2" points="16 16.67 16 16.68 16 16.68 16 16.67"/></g></g></svg>