<svg xmlns="http://www.w3.org/2000/svg" viewBox="0 0 161.89 40"><defs><style>.cls-1{fill:#fff;}</style></defs><g id="Layer_2" data-name="Layer 2"><g id="Layer_1-2" data-name="Layer 1"><polygon class="cls-1" points="32 32 24 40 16 32.01 16 32 24 24 32 32"/><polygon class="cls-1" points="48 16 40 24 32 16 24 24 16 16.01 16 16 15.99 16 8 24 0 16.01 0 16 8 8 16 0.01 24 8 32 0 48 16"/><path class="cls-1" d="M75.58,27.79H70.16l2.25-10.56-5.8,10.56H63.29l-1.1-10.93L59.84,27.79H57.65L61,12.27h6.23L67.93,21l4.69-8.75h6.29Z"/><path class="cls-1" d="M87.78,21.92l-1.25,5.87h-5.3l1.34-6.28-2.39-9.24H86L87.7,18.4l3.67-6.13H94Z"/><path class="cls-1" d="M101.31,16.76a5.08,5.08,0,0,0,.08-1,5.81,5.81,0,0,0,0-.72,2.32,2.32,0,0,0-.17-.63,1,1,0,0,0-.37-.44,1.09,1.09,0,0,0-.63-.16,1.67,1.67,0,0,0-.81.19,2.45,2.45,0,0,0-.65.5,2.48,2.48,0,0,0-.44.71,2.42,2.42,0,0,0-.16.85,1.33,1.33,0,0,0,.33,1,2.53,2.53,0,0,0,.87.57,8.44,8.44,0,0,0,1.22.36c.46.1.93.22,1.42.35a8.46,8.46,0,0,1,1.22.43,3.83,3.83,0,0,1,1.09.72,3.45,3.45,0,0,1,.77,1.18,4.92,4.92,0,0,1,.29,1.8,5.09,5.09,0,0,1-.61,2.59,4.8,4.8,0,0,1-1.68,1.7,7.62,7.62,0,0,1-2.56,1,17,17,0,0,1-3.21.29,14.06,14.06,0,0,1-2.87-.23,9.11,9.11,0,0,1-1.75-.5,3,3,0,0,1-1.12-.73l.83-3.35h4.3a5.93,5.93,0,0,0-.05.6q0,.38,0,.6a2.77,2.77,0,0,0,.08.61,1.72,1.72,0,0,0,.23.58,1.19,1.19,0,0,0,.45.44,1.39,1.39,0,0,0,.73.17,1.66,1.66,0,0,0,.87-.22,2.13,2.13,0,0,0,.64-.55,2.5,2.5,0,0,0,.52-1.52,1.57,1.57,0,0,0-.25-.91,2.23,2.23,0,0,0-.7-.62,5,5,0,0,0-1-.44l-1.19-.38c-.39-.11-.8-.25-1.23-.41a4.41,4.41,0,0,1-1.19-.69,3.38,3.38,0,0,1-.89-1.11,3.63,3.63,0,0,1-.36-1.72,4.26,4.26,0,0,1,.8-2.63,6.16,6.16,0,0,1,2-1.72,9,9,0,0,1,2.65-.94,14.2,14.2,0,0,1,2.74-.29,9.55,9.55,0,0,1,3,.41,5.69,5.69,0,0,1,1.87.94l-.91,3.39Z"/><path class="cls-1" d="M120.67,14.13h-3.94l-2.9,13.66h-5.28l2.91-13.66h-3.89l.44-1.86h13.07Z"/><path class="cls-1" d="M122.65,12.27h10.29l-.4,1.86h-5l-1,4.71h4.18l-.39,1.83h-4.18L125,25.9h5l-.36,1.89H119.35Z"/><path class="cls-1" d="M146.86,16a4.77,4.77,0,0,1-.8,2.66,5,5,0,0,1-2.67,1.86l2.84,7.31h-5.45L138.63,21h-.27l-1.44,6.77h-5.28l3.3-15.52h6.42a16,16,0,0,1,2.13.13,5.07,5.07,0,0,1,1.75.54,3,3,0,0,1,1.18,1.12A3.56,3.56,0,0,1,146.86,16Zm-7,3.49a1.53,1.53,0,0,0,1.08-.42,3.57,3.57,0,0,0,.74-1,5.69,5.69,0,0,0,.4-1.31,7.24,7.24,0,0,0,.12-1.21,2.44,2.44,0,0,0-.22-1.09,1,1,0,0,0-.95-.45h-1.1l-1.22,5.52Z"/><path class="cls-1" d="M155.66,21.92l-1.24,5.87h-5.31l1.35-6.28-2.4-9.24h5.87l1.66,6.13,3.66-6.13h2.64Z"/></g></g></svg>